<mxfile host="app.diagrams.net" modified="2024-03-04T07:36:20.914Z" agent="Mozilla/5.0 (Windows NT 10.0; Win64; x64) AppleWebKit/537.36 (KHTML, like Gecko) Chrome/122.0.0.0 Safari/537.36" etag="HcMSB3KEtZ_qHRJ3Pa8x" version="24.0.1" type="github">
  <diagram name="第 1 页" id="GE0wQYHp8Ooc9d-nAeuC">
    <mxGraphModel dx="1985" dy="1230" grid="1" gridSize="10" guides="1" tooltips="1" connect="1" arrows="1" fold="1" page="1" pageScale="1" pageWidth="827" pageHeight="1169" math="1" shadow="0">
      <root>
        <mxCell id="0" />
        <mxCell id="1" parent="0" />
        <mxCell id="NJFHsSzeo0ePB9_vtrrG-40" value="" style="ellipse;whiteSpace=wrap;html=1;dashed=1;fontSize=13;" parent="1" vertex="1">
          <mxGeometry x="322" y="640" width="197" height="80" as="geometry" />
        </mxCell>
        <mxCell id="NJFHsSzeo0ePB9_vtrrG-39" value="" style="ellipse;whiteSpace=wrap;html=1;flipH=0;flipV=1;dashed=1;fontSize=13;" parent="1" vertex="1">
          <mxGeometry x="40" y="640" width="230" height="80" as="geometry" />
        </mxCell>
        <mxCell id="NJFHsSzeo0ePB9_vtrrG-14" value="" style="outlineConnect=0;dashed=0;verticalLabelPosition=bottom;verticalAlign=top;align=center;html=1;shape=mxgraph.aws3.management_console;fillColor=#E7D7E7;spacing=2;strokeColor=#9673a6;fontSize=13;" parent="1" vertex="1">
          <mxGeometry x="75" y="798" width="63" height="63" as="geometry" />
        </mxCell>
        <mxCell id="NJFHsSzeo0ePB9_vtrrG-15" value="" style="outlineConnect=0;dashed=0;verticalLabelPosition=bottom;verticalAlign=top;align=center;html=1;shape=mxgraph.aws3.management_console;fillColor=#E7D7E7;spacing=2;strokeColor=#9673a6;fontFamily=Helvetica;fontSize=13;fontColor=default;" parent="1" vertex="1">
          <mxGeometry x="192.5" y="798" width="63" height="63" as="geometry" />
        </mxCell>
        <mxCell id="NJFHsSzeo0ePB9_vtrrG-16" value="" style="outlineConnect=0;dashed=0;verticalLabelPosition=bottom;verticalAlign=top;align=center;html=1;shape=mxgraph.aws3.management_console;fillColor=#E7D7E7;spacing=2;strokeColor=#9673a6;fontFamily=Helvetica;fontSize=13;fontColor=default;" parent="1" vertex="1">
          <mxGeometry x="446" y="798" width="63" height="63" as="geometry" />
        </mxCell>
        <mxCell id="NJFHsSzeo0ePB9_vtrrG-17" value="&lt;font style=&quot;font-size: 13px;&quot;&gt;.......&lt;/font&gt;" style="text;html=1;align=center;verticalAlign=middle;resizable=0;points=[];autosize=1;strokeColor=none;fillColor=none;fontSize=13;" parent="1" vertex="1">
          <mxGeometry x="273.5" y="814.5" width="50" height="30" as="geometry" />
        </mxCell>
        <mxCell id="NJFHsSzeo0ePB9_vtrrG-18" value="" style="outlineConnect=0;dashed=0;verticalLabelPosition=bottom;verticalAlign=top;align=center;html=1;shape=mxgraph.aws3.management_console;fillColor=#E7D7E7;spacing=2;strokeColor=#9673a6;fontFamily=Helvetica;fontSize=13;fontColor=default;" parent="1" vertex="1">
          <mxGeometry x="338.5" y="798" width="63" height="63" as="geometry" />
        </mxCell>
        <mxCell id="NJFHsSzeo0ePB9_vtrrG-19" value="&lt;font face=&quot;Times New Roman&quot;&gt;&lt;i&gt;$$W_1$$&lt;/i&gt;&lt;/font&gt;" style="ellipse;whiteSpace=wrap;html=1;aspect=fixed;fontSize=13;" parent="1" vertex="1">
          <mxGeometry x="120" y="568" width="40" height="40" as="geometry" />
        </mxCell>
        <mxCell id="NJFHsSzeo0ePB9_vtrrG-20" value="&lt;font face=&quot;Times New Roman&quot;&gt;&lt;i&gt;$$V_{11}$$&lt;/i&gt;&lt;/font&gt;" style="ellipse;whiteSpace=wrap;html=1;aspect=fixed;fontSize=13;" parent="1" vertex="1">
          <mxGeometry x="60" y="660" width="40" height="40" as="geometry" />
        </mxCell>
        <mxCell id="NJFHsSzeo0ePB9_vtrrG-21" value="&lt;font face=&quot;Times New Roman&quot; style=&quot;font-size: 13px;&quot;&gt;&lt;i style=&quot;font-size: 13px;&quot;&gt;V&lt;sub style=&quot;font-size: 13px;&quot;&gt;12&lt;/sub&gt;&lt;/i&gt;&lt;/font&gt;" style="ellipse;whiteSpace=wrap;html=1;aspect=fixed;fontSize=13;" parent="1" vertex="1">
          <mxGeometry x="123" y="660" width="40" height="40" as="geometry" />
        </mxCell>
        <mxCell id="NJFHsSzeo0ePB9_vtrrG-22" value="&lt;font face=&quot;Times New Roman&quot;&gt;&lt;i&gt;$$V_{m1}$$&lt;/i&gt;&lt;/font&gt;" style="ellipse;whiteSpace=wrap;html=1;aspect=fixed;fontSize=13;" parent="1" vertex="1">
          <mxGeometry x="329" y="660" width="40" height="40" as="geometry" />
        </mxCell>
        <mxCell id="NJFHsSzeo0ePB9_vtrrG-23" value="&lt;font face=&quot;Times New Roman&quot;&gt;&lt;i&gt;$$V_{mn}$$&lt;/i&gt;&lt;/font&gt;" style="ellipse;whiteSpace=wrap;html=1;aspect=fixed;fontSize=13;" parent="1" vertex="1">
          <mxGeometry x="469" y="660" width="40" height="40" as="geometry" />
        </mxCell>
        <mxCell id="NJFHsSzeo0ePB9_vtrrG-24" value="&lt;font face=&quot;Times New Roman&quot;&gt;&lt;i&gt;$$V_{1n}$$&lt;/i&gt;&lt;/font&gt;" style="ellipse;whiteSpace=wrap;html=1;aspect=fixed;fontSize=13;" parent="1" vertex="1">
          <mxGeometry x="215.5" y="660" width="40" height="40" as="geometry" />
        </mxCell>
        <mxCell id="NJFHsSzeo0ePB9_vtrrG-25" value="......&lt;br style=&quot;font-size: 13px;&quot;&gt;" style="text;html=1;align=center;verticalAlign=middle;resizable=0;points=[];autosize=1;strokeColor=none;fillColor=none;fontSize=13;" parent="1" vertex="1">
          <mxGeometry x="265" y="660" width="50" height="30" as="geometry" />
        </mxCell>
        <mxCell id="NJFHsSzeo0ePB9_vtrrG-26" value="&lt;font face=&quot;Times New Roman&quot; style=&quot;font-size: 13px;&quot;&gt;&lt;i style=&quot;font-size: 13px;&quot;&gt;W&lt;/i&gt;&lt;/font&gt;" style="ellipse;whiteSpace=wrap;html=1;aspect=fixed;fontSize=13;" parent="1" vertex="1">
          <mxGeometry x="255.5" y="484" width="50" height="50" as="geometry" />
        </mxCell>
        <mxCell id="NJFHsSzeo0ePB9_vtrrG-28" value="" style="endArrow=none;html=1;rounded=0;entryX=0;entryY=0.5;entryDx=0;entryDy=0;exitX=0.5;exitY=0;exitDx=0;exitDy=0;fontSize=13;" parent="1" source="NJFHsSzeo0ePB9_vtrrG-19" target="NJFHsSzeo0ePB9_vtrrG-26" edge="1">
          <mxGeometry width="50" height="50" relative="1" as="geometry">
            <mxPoint x="230" y="600" as="sourcePoint" />
            <mxPoint x="280" y="550" as="targetPoint" />
          </mxGeometry>
        </mxCell>
        <mxCell id="NJFHsSzeo0ePB9_vtrrG-29" value="&lt;i style=&quot;font-size: 13px;&quot;&gt;&lt;font face=&quot;Times New Roman&quot; style=&quot;font-size: 13px;&quot;&gt;$$W_2$$&lt;/font&gt;&lt;/i&gt;" style="ellipse;whiteSpace=wrap;html=1;aspect=fixed;fontSize=13;" parent="1" vertex="1">
          <mxGeometry x="200" y="568" width="40" height="40" as="geometry" />
        </mxCell>
        <mxCell id="NJFHsSzeo0ePB9_vtrrG-30" value="&lt;span style=&quot;font-size: 12px; text-wrap: nowrap;&quot;&gt;$$W_{m-1}$$&lt;/span&gt;" style="ellipse;whiteSpace=wrap;html=1;aspect=fixed;fontSize=13;" parent="1" vertex="1">
          <mxGeometry x="320" y="568" width="40" height="40" as="geometry" />
        </mxCell>
        <mxCell id="NJFHsSzeo0ePB9_vtrrG-31" value="&lt;font face=&quot;Times New Roman&quot;&gt;&lt;i&gt;$$W_m$$&lt;/i&gt;&lt;/font&gt;" style="ellipse;whiteSpace=wrap;html=1;aspect=fixed;fontSize=13;" parent="1" vertex="1">
          <mxGeometry x="401.5" y="568" width="40" height="40" as="geometry" />
        </mxCell>
        <mxCell id="NJFHsSzeo0ePB9_vtrrG-32" value="......." style="text;html=1;align=center;verticalAlign=middle;resizable=0;points=[];autosize=1;strokeColor=none;fillColor=none;fontSize=13;" parent="1" vertex="1">
          <mxGeometry x="255.5" y="568" width="50" height="30" as="geometry" />
        </mxCell>
        <mxCell id="NJFHsSzeo0ePB9_vtrrG-33" value="" style="endArrow=none;html=1;rounded=0;exitX=0.5;exitY=0;exitDx=0;exitDy=0;fontSize=13;" parent="1" source="NJFHsSzeo0ePB9_vtrrG-29" target="NJFHsSzeo0ePB9_vtrrG-26" edge="1">
          <mxGeometry width="50" height="50" relative="1" as="geometry">
            <mxPoint x="230" y="600" as="sourcePoint" />
            <mxPoint x="280" y="550" as="targetPoint" />
          </mxGeometry>
        </mxCell>
        <mxCell id="NJFHsSzeo0ePB9_vtrrG-34" value="" style="endArrow=none;html=1;rounded=0;entryX=1;entryY=1;entryDx=0;entryDy=0;exitX=0.5;exitY=0;exitDx=0;exitDy=0;fontSize=13;" parent="1" source="NJFHsSzeo0ePB9_vtrrG-30" target="NJFHsSzeo0ePB9_vtrrG-26" edge="1">
          <mxGeometry width="50" height="50" relative="1" as="geometry">
            <mxPoint x="230" y="600" as="sourcePoint" />
            <mxPoint x="280" y="550" as="targetPoint" />
          </mxGeometry>
        </mxCell>
        <mxCell id="NJFHsSzeo0ePB9_vtrrG-35" value="" style="endArrow=none;html=1;rounded=0;entryX=1;entryY=0.5;entryDx=0;entryDy=0;exitX=0.5;exitY=0;exitDx=0;exitDy=0;fontSize=13;" parent="1" source="NJFHsSzeo0ePB9_vtrrG-31" target="NJFHsSzeo0ePB9_vtrrG-26" edge="1">
          <mxGeometry width="50" height="50" relative="1" as="geometry">
            <mxPoint x="230" y="600" as="sourcePoint" />
            <mxPoint x="280" y="550" as="targetPoint" />
          </mxGeometry>
        </mxCell>
        <mxCell id="NJFHsSzeo0ePB9_vtrrG-36" value="......&lt;br style=&quot;font-size: 13px;&quot;&gt;" style="text;html=1;align=center;verticalAlign=middle;resizable=0;points=[];autosize=1;strokeColor=none;fillColor=none;fontSize=13;" parent="1" vertex="1">
          <mxGeometry x="417" y="660" width="50" height="30" as="geometry" />
        </mxCell>
        <mxCell id="NJFHsSzeo0ePB9_vtrrG-37" value="......&lt;br style=&quot;font-size: 13px;&quot;&gt;" style="text;html=1;align=center;verticalAlign=middle;resizable=0;points=[];autosize=1;strokeColor=none;fillColor=none;fontSize=13;" parent="1" vertex="1">
          <mxGeometry x="166.5" y="660" width="50" height="30" as="geometry" />
        </mxCell>
        <mxCell id="NJFHsSzeo0ePB9_vtrrG-38" value="&lt;font face=&quot;Times New Roman&quot;&gt;&lt;i&gt;$$V_{m2}$$&lt;/i&gt;&lt;/font&gt;" style="ellipse;whiteSpace=wrap;html=1;aspect=fixed;fontSize=13;" parent="1" vertex="1">
          <mxGeometry x="383" y="660" width="40" height="40" as="geometry" />
        </mxCell>
        <mxCell id="NJFHsSzeo0ePB9_vtrrG-41" value="" style="endArrow=none;html=1;rounded=0;entryX=0;entryY=1;entryDx=0;entryDy=0;exitX=0.5;exitY=0;exitDx=0;exitDy=0;fontSize=13;" parent="1" source="NJFHsSzeo0ePB9_vtrrG-20" target="NJFHsSzeo0ePB9_vtrrG-19" edge="1">
          <mxGeometry width="50" height="50" relative="1" as="geometry">
            <mxPoint x="230" y="670" as="sourcePoint" />
            <mxPoint x="280" y="620" as="targetPoint" />
          </mxGeometry>
        </mxCell>
        <mxCell id="NJFHsSzeo0ePB9_vtrrG-42" value="" style="endArrow=none;html=1;rounded=0;entryX=0.5;entryY=1;entryDx=0;entryDy=0;exitX=0.5;exitY=0;exitDx=0;exitDy=0;fontSize=13;" parent="1" source="NJFHsSzeo0ePB9_vtrrG-21" target="NJFHsSzeo0ePB9_vtrrG-19" edge="1">
          <mxGeometry width="50" height="50" relative="1" as="geometry">
            <mxPoint x="230" y="670" as="sourcePoint" />
            <mxPoint x="280" y="620" as="targetPoint" />
          </mxGeometry>
        </mxCell>
        <mxCell id="NJFHsSzeo0ePB9_vtrrG-43" value="" style="endArrow=none;html=1;rounded=0;exitX=0.5;exitY=0;exitDx=0;exitDy=0;entryX=1;entryY=1;entryDx=0;entryDy=0;fontSize=13;" parent="1" source="NJFHsSzeo0ePB9_vtrrG-24" target="NJFHsSzeo0ePB9_vtrrG-19" edge="1">
          <mxGeometry width="50" height="50" relative="1" as="geometry">
            <mxPoint x="230" y="670" as="sourcePoint" />
            <mxPoint x="170" y="600" as="targetPoint" />
          </mxGeometry>
        </mxCell>
        <mxCell id="NJFHsSzeo0ePB9_vtrrG-45" value="" style="endArrow=none;html=1;rounded=0;exitX=0.44;exitY=-0.015;exitDx=0;exitDy=0;exitPerimeter=0;entryX=0;entryY=1;entryDx=0;entryDy=0;fontSize=13;" parent="1" source="NJFHsSzeo0ePB9_vtrrG-22" target="NJFHsSzeo0ePB9_vtrrG-31" edge="1">
          <mxGeometry width="50" height="50" relative="1" as="geometry">
            <mxPoint x="290" y="660" as="sourcePoint" />
            <mxPoint x="400" y="590" as="targetPoint" />
          </mxGeometry>
        </mxCell>
        <mxCell id="NJFHsSzeo0ePB9_vtrrG-46" value="" style="endArrow=none;html=1;rounded=0;entryX=0.5;entryY=1;entryDx=0;entryDy=0;exitX=0.5;exitY=0;exitDx=0;exitDy=0;fontSize=13;" parent="1" source="NJFHsSzeo0ePB9_vtrrG-38" target="NJFHsSzeo0ePB9_vtrrG-31" edge="1">
          <mxGeometry width="50" height="50" relative="1" as="geometry">
            <mxPoint x="320" y="650" as="sourcePoint" />
            <mxPoint x="370" y="600" as="targetPoint" />
          </mxGeometry>
        </mxCell>
        <mxCell id="NJFHsSzeo0ePB9_vtrrG-47" value="" style="endArrow=none;html=1;rounded=0;entryX=1;entryY=1;entryDx=0;entryDy=0;exitX=0.5;exitY=0;exitDx=0;exitDy=0;fontSize=13;" parent="1" source="NJFHsSzeo0ePB9_vtrrG-23" target="NJFHsSzeo0ePB9_vtrrG-31" edge="1">
          <mxGeometry width="50" height="50" relative="1" as="geometry">
            <mxPoint x="420" y="650" as="sourcePoint" />
            <mxPoint x="470" y="600" as="targetPoint" />
          </mxGeometry>
        </mxCell>
        <mxCell id="NJFHsSzeo0ePB9_vtrrG-48" value="$$AA_1$$" style="text;html=1;align=center;verticalAlign=middle;resizable=0;points=[];autosize=1;strokeColor=none;fillColor=none;fontFamily=Times New Roman;fontStyle=3;fontSize=13;" parent="1" vertex="1">
          <mxGeometry x="66.5" y="871" width="80" height="30" as="geometry" />
        </mxCell>
        <mxCell id="NJFHsSzeo0ePB9_vtrrG-49" value="$$AA_2$$" style="text;html=1;align=center;verticalAlign=middle;resizable=0;points=[];autosize=1;strokeColor=none;fillColor=none;fontFamily=Times New Roman;fontStyle=3;fontSize=13;" parent="1" vertex="1">
          <mxGeometry x="184" y="871" width="80" height="30" as="geometry" />
        </mxCell>
        <mxCell id="NJFHsSzeo0ePB9_vtrrG-52" value="$$AA_k$$" style="text;html=1;align=center;verticalAlign=middle;resizable=0;points=[];autosize=1;strokeColor=none;fillColor=none;fontFamily=Times New Roman;fontStyle=3;fontSize=13;" parent="1" vertex="1">
          <mxGeometry x="437.5" y="871" width="80" height="30" as="geometry" />
        </mxCell>
        <mxCell id="NJFHsSzeo0ePB9_vtrrG-53" value="$$AA_{k-1}$$" style="text;html=1;align=center;verticalAlign=middle;resizable=0;points=[];autosize=1;strokeColor=none;fillColor=none;fontFamily=Times New Roman;fontStyle=3;fontSize=13;" parent="1" vertex="1">
          <mxGeometry x="321.5" y="871" width="100" height="30" as="geometry" />
        </mxCell>
        <mxCell id="NJFHsSzeo0ePB9_vtrrG-54" value="" style="endArrow=none;html=1;rounded=0;entryX=0.5;entryY=1;entryDx=0;entryDy=0;exitX=0.5;exitY=0;exitDx=0;exitDy=0;exitPerimeter=0;fontSize=13;" parent="1" source="NJFHsSzeo0ePB9_vtrrG-14" target="NJFHsSzeo0ePB9_vtrrG-20" edge="1">
          <mxGeometry width="50" height="50" relative="1" as="geometry">
            <mxPoint x="230" y="800" as="sourcePoint" />
            <mxPoint x="280" y="750" as="targetPoint" />
          </mxGeometry>
        </mxCell>
        <mxCell id="NJFHsSzeo0ePB9_vtrrG-55" value="" style="endArrow=none;html=1;rounded=0;entryX=0.5;entryY=1;entryDx=0;entryDy=0;exitX=0.5;exitY=0;exitDx=0;exitDy=0;exitPerimeter=0;fontSize=13;" parent="1" source="NJFHsSzeo0ePB9_vtrrG-14" target="NJFHsSzeo0ePB9_vtrrG-21" edge="1">
          <mxGeometry width="50" height="50" relative="1" as="geometry">
            <mxPoint x="110" y="800" as="sourcePoint" />
            <mxPoint x="280" y="750" as="targetPoint" />
          </mxGeometry>
        </mxCell>
        <mxCell id="NJFHsSzeo0ePB9_vtrrG-56" value="" style="endArrow=none;html=1;rounded=0;entryX=0.5;entryY=1;entryDx=0;entryDy=0;exitX=0.5;exitY=0;exitDx=0;exitDy=0;exitPerimeter=0;fontSize=13;" parent="1" source="NJFHsSzeo0ePB9_vtrrG-18" target="NJFHsSzeo0ePB9_vtrrG-24" edge="1">
          <mxGeometry width="50" height="50" relative="1" as="geometry">
            <mxPoint x="180" y="790" as="sourcePoint" />
            <mxPoint x="230" y="740" as="targetPoint" />
          </mxGeometry>
        </mxCell>
        <mxCell id="NJFHsSzeo0ePB9_vtrrG-57" value="" style="endArrow=none;html=1;rounded=0;exitX=0.5;exitY=0;exitDx=0;exitDy=0;exitPerimeter=0;fontSize=13;" parent="1" source="NJFHsSzeo0ePB9_vtrrG-15" edge="1">
          <mxGeometry width="50" height="50" relative="1" as="geometry">
            <mxPoint x="40" y="770" as="sourcePoint" />
            <mxPoint x="80" y="700" as="targetPoint" />
          </mxGeometry>
        </mxCell>
        <mxCell id="NJFHsSzeo0ePB9_vtrrG-59" value="" style="endArrow=none;html=1;rounded=0;exitX=0.5;exitY=0;exitDx=0;exitDy=0;exitPerimeter=0;fontSize=13;" parent="1" source="NJFHsSzeo0ePB9_vtrrG-15" edge="1">
          <mxGeometry width="50" height="50" relative="1" as="geometry">
            <mxPoint x="300" y="750" as="sourcePoint" />
            <mxPoint x="350" y="700" as="targetPoint" />
          </mxGeometry>
        </mxCell>
        <mxCell id="NJFHsSzeo0ePB9_vtrrG-60" value="" style="endArrow=none;html=1;rounded=0;entryX=0.5;entryY=1;entryDx=0;entryDy=0;exitX=0.5;exitY=0;exitDx=0;exitDy=0;exitPerimeter=0;fontSize=13;" parent="1" source="NJFHsSzeo0ePB9_vtrrG-18" target="NJFHsSzeo0ePB9_vtrrG-22" edge="1">
          <mxGeometry width="50" height="50" relative="1" as="geometry">
            <mxPoint x="370" y="800" as="sourcePoint" />
            <mxPoint x="280" y="680" as="targetPoint" />
          </mxGeometry>
        </mxCell>
        <mxCell id="NJFHsSzeo0ePB9_vtrrG-61" value="" style="endArrow=none;html=1;rounded=0;entryX=0.575;entryY=0.995;entryDx=0;entryDy=0;entryPerimeter=0;exitX=0.5;exitY=0;exitDx=0;exitDy=0;exitPerimeter=0;fontSize=13;" parent="1" source="NJFHsSzeo0ePB9_vtrrG-16" target="NJFHsSzeo0ePB9_vtrrG-23" edge="1">
          <mxGeometry width="50" height="50" relative="1" as="geometry">
            <mxPoint x="230" y="800" as="sourcePoint" />
            <mxPoint x="280" y="750" as="targetPoint" />
          </mxGeometry>
        </mxCell>
        <mxCell id="NJFHsSzeo0ePB9_vtrrG-62" value="" style="endArrow=none;html=1;rounded=0;entryX=0.5;entryY=1;entryDx=0;entryDy=0;exitX=0.5;exitY=0;exitDx=0;exitDy=0;exitPerimeter=0;fontSize=13;" parent="1" source="NJFHsSzeo0ePB9_vtrrG-18" target="NJFHsSzeo0ePB9_vtrrG-23" edge="1">
          <mxGeometry width="50" height="50" relative="1" as="geometry">
            <mxPoint x="370" y="800" as="sourcePoint" />
            <mxPoint x="280" y="750" as="targetPoint" />
          </mxGeometry>
        </mxCell>
        <mxCell id="NJFHsSzeo0ePB9_vtrrG-63" value="" style="endArrow=none;html=1;rounded=0;entryX=0.5;entryY=1;entryDx=0;entryDy=0;exitX=0.5;exitY=0;exitDx=0;exitDy=0;exitPerimeter=0;fontSize=13;" parent="1" source="NJFHsSzeo0ePB9_vtrrG-16" target="NJFHsSzeo0ePB9_vtrrG-38" edge="1">
          <mxGeometry width="50" height="50" relative="1" as="geometry">
            <mxPoint x="230" y="800" as="sourcePoint" />
            <mxPoint x="280" y="750" as="targetPoint" />
          </mxGeometry>
        </mxCell>
        <mxCell id="NJFHsSzeo0ePB9_vtrrG-64" value="" style="endArrow=none;html=1;rounded=0;entryX=0.443;entryY=0.995;entryDx=0;entryDy=0;entryPerimeter=0;exitX=0.5;exitY=0;exitDx=0;exitDy=0;exitPerimeter=0;fontSize=13;" parent="1" source="NJFHsSzeo0ePB9_vtrrG-14" target="NJFHsSzeo0ePB9_vtrrG-24" edge="1">
          <mxGeometry width="50" height="50" relative="1" as="geometry">
            <mxPoint x="180" y="750" as="sourcePoint" />
            <mxPoint x="240" y="730" as="targetPoint" />
          </mxGeometry>
        </mxCell>
        <mxCell id="NJFHsSzeo0ePB9_vtrrG-67" value="" style="endArrow=none;html=1;rounded=0;entryX=0.5;entryY=1;entryDx=0;entryDy=0;exitX=0.5;exitY=0;exitDx=0;exitDy=0;exitPerimeter=0;fontSize=13;" parent="1" source="NJFHsSzeo0ePB9_vtrrG-15" target="NJFHsSzeo0ePB9_vtrrG-21" edge="1">
          <mxGeometry width="50" height="50" relative="1" as="geometry">
            <mxPoint x="160" y="800" as="sourcePoint" />
            <mxPoint x="140" y="700" as="targetPoint" />
          </mxGeometry>
        </mxCell>
        <mxCell id="NJFHsSzeo0ePB9_vtrrG-68" value="" style="endArrow=none;html=1;rounded=0;exitX=0.5;exitY=0;exitDx=0;exitDy=0;exitPerimeter=0;fontSize=13;" parent="1" source="NJFHsSzeo0ePB9_vtrrG-18" edge="1">
          <mxGeometry width="50" height="50" relative="1" as="geometry">
            <mxPoint x="370" y="800" as="sourcePoint" />
            <mxPoint x="400" y="700" as="targetPoint" />
          </mxGeometry>
        </mxCell>
        <mxCell id="0Q99q4_eDLCmetGRzXzH-1" value="" style="endArrow=none;html=1;rounded=0;exitX=0.5;exitY=0;exitDx=0;exitDy=0;exitPerimeter=0;fontSize=13;" parent="1" source="NJFHsSzeo0ePB9_vtrrG-18" edge="1">
          <mxGeometry width="50" height="50" relative="1" as="geometry">
            <mxPoint x="360" y="770" as="sourcePoint" />
            <mxPoint x="140" y="700" as="targetPoint" />
          </mxGeometry>
        </mxCell>
      </root>
    </mxGraphModel>
  </diagram>
</mxfile>
